<?xml version="1.0" standalone="no"?>
<!DOCTYPE svg PUBLIC "-//W3C//DTD SVG 20010904//EN"
 "http://www.w3.org/TR/2001/REC-SVG-20010904/DTD/svg10.dtd">
<svg version="1.0" xmlns="http://www.w3.org/2000/svg"
 width="573.000000pt" height="573.000000pt" viewBox="0 0 573.000000 573.000000"
 preserveAspectRatio="xMidYMid meet">
<metadata>
Created by potrace 1.14, written by Peter Selinger 2001-2017
</metadata>
<g transform="translate(0.000000,573.000000) scale(0.100000,-0.100000)"
fill="#000000" stroke="none">
<path d="M90 5375 c-11 -13 -10 -14 4 -9 9 3 16 10 16 15 0 13 -6 11 -20 -6z"/>
<path d="M980 5384 c-260 -48 -346 -76 -478 -156 -70 -43 -81 -51 -121 -90
-16 -16 -33 -28 -40 -28 -6 0 -11 -6 -11 -12 0 -7 -11 -23 -25 -36 -13 -13
-30 -36 -37 -52 -7 -17 -16 -30 -19 -30 -7 0 -68 -130 -74 -157 -5 -29 -35
-155 -46 -195 -18 -69 -21 -337 -5 -419 8 -40 17 -92 21 -113 17 -99 218 -343
389 -472 99 -74 80 -63 226 -133 199 -96 367 -133 602 -130 l157 2 83 -99
c251 -300 542 -520 873 -662 66 -28 140 -58 165 -66 55 -18 230 -59 325 -77
91 -17 391 -17 470 0 95 20 165 41 165 50 0 4 -24 13 -52 20 -63 14 -188 70
-188 83 0 10 18 8 150 -13 74 -12 243 -7 310 9 74 18 179 78 242 140 61 58
143 205 154 275 4 20 11 37 17 37 15 0 0 -169 -21 -233 -22 -66 -59 -130 -104
-178 -57 -63 -197 -139 -255 -139 -12 0 -33 -4 -48 -10 l-26 -10 28 -37 c34
-45 116 -126 163 -162 19 -14 37 -28 40 -31 32 -36 347 -200 439 -230 154 -49
360 -76 453 -60 110 20 244 62 323 103 117 59 186 108 254 179 48 50 53 56 80
103 13 22 29 45 36 50 22 19 93 231 109 325 16 100 24 256 12 267 -3 3 -6 19
-6 35 0 29 -28 144 -56 230 -22 69 -107 222 -168 303 -86 115 -228 244 -351
318 -75 45 -219 108 -305 132 -52 15 -113 32 -135 38 -36 11 -351 14 -443 5
-34 -3 -34 -3 -63 77 -69 189 -180 367 -326 520 -134 141 -342 272 -548 345
-161 56 -269 74 -460 75 -221 0 -345 -22 -540 -98 -69 -27 -215 -114 -277
-165 -79 -66 -206 -214 -281 -327 l-39 -60 5 56 c3 31 12 72 20 90 16 36 30
71 31 79 1 3 6 12 11 20 5 8 19 31 30 51 48 88 130 179 203 226 28 18 52 37
52 42 0 9 -67 71 -125 117 -48 36 -203 134 -213 134 -4 0 -23 8 -42 19 -19 10
-46 22 -60 26 -14 4 -38 13 -55 20 -121 50 -256 74 -435 80 -74 2 -146 2 -160
-1z"/>
<path d="M411 3508 c12 -59 24 -421 14 -444 -4 -11 -8 -50 -10 -89 -1 -38 -5
-86 -9 -105 -3 -19 -8 -51 -10 -70 -2 -19 -9 -57 -15 -85 -35 -150 -43 -185
-57 -235 -26 -93 -67 -201 -115 -308 -16 -35 -29 -66 -29 -69 0 -4 -34 -75
-75 -160 -41 -84 -75 -156 -75 -161 0 -4 12 -21 28 -38 15 -16 43 -49 62 -73
50 -62 195 -208 265 -268 82 -70 318 -227 484 -322 306 -176 588 -301 936
-416 673 -221 1198 -306 1800 -291 138 3 264 9 281 12 l31 6 11 118 c12 122
18 153 58 331 29 129 58 215 113 336 57 127 67 144 76 135 5 -4 5 -2 1 5 -9
16 59 142 153 283 80 121 201 255 267 295 l39 24 -40 1 c-85 0 -397 91 -530
154 -120 58 -264 187 -393 354 l-18 24 -65 -31 c-132 -62 -201 -74 -434 -75
-203 0 -368 14 -389 35 -6 5 -21 9 -34 9 -34 0 -180 46 -296 93 -274 111 -518
277 -746 506 -64 64 -143 150 -176 191 l-60 75 -145 -3 c-129 -4 -226 5 -359
33 -127 27 -382 148 -487 232 -55 44 -62 42 -52 -9z"/>
</g>
</svg>
